PathFileType	4	(X/Y/Z)	Patient4_TMGait_0pt2_03_left_25.trc.trc
DataRate	CameraRate	NumFrames	NumMarkers	Units	OrigDataRate	OrigDataStartFrame	OrigNumFrames
48.611111111111	48.611111111111	4	33	mm	48.611111111111	36	       141
Frame#	Time	Sacral			L.Shoulder			Chest			R.Shoulder			Neck			R.ASIS			L.ASIS			R.Thigh.Superior			R.Thigh.Lateral			R.Thigh.Inferior			R.Patella			L.Thigh.Superior			L.Thigh.Lateral			L.Thigh.Inferior			L.Patella			L.Shank.Superior			L.Shank.Lateral			L.Shank.Inferior			R.Shank.Superior			R.Shank.Lateral			R.Shank.Inferior			R.Heel			R.Midfoot.Superior			R.Midfoot.Lateral			R.Toe			L.Heel			L.Midfoot.Lateral			L.Midfoot.Superior			L.Toe			L.Elbow			L.Wrist			R.Elbow			R.Wrist			
		X1	Y1	Z1	X2	Y2	Z2	X3	Y3	Z3	X4	Y4	Z4	X5	Y5	Z5	X6	Y6	Z6	X7	Y7	Z7	X8	Y8	Z8	X9	Y9	Z9	X10	Y10	Z10	X11	Y11	Z11	X12	Y12	Z12	X13	Y13	Z13	X14	Y14	Z14	X15	Y15	Z15	X16	Y16	Z16	X17	Y17	Z17	X18	Y18	Z18	X19	Y19	Z19	X20	Y20	Z20	X21	Y21	Z21	X22	Y22	Z22	X23	Y23	Z23	X24	Y24	Z24	X25	Y25	Z25	X26	Y26	Z26	X27	Y27	Z27	X28	Y28	Z28	X29	Y29	Z29	X30	Y30	Z30	X31	Y31	Z31	X32	Y32	Z32	X33	Y33	Z33	

36	52.910000000000	905.278852866527	1013.808980979492	509.971918034610	1047.831351877759	1425.153821916951	273.352980286541	1189.284028080472	1353.220621344220	400.682396717235	1163.183823648251	1439.913331343263	584.257113517417	1072.452406440294	1491.068565479362	426.074752384432	1149.171476953882	933.058933579765	573.637912621368	1078.128210504419	956.686511932284	309.415829988088	1145.795562604695	721.492504181604	548.101567060292	1061.912053750990	624.729856304620	629.097360486625	1110.866618399963	560.052908271376	539.602797110612	1097.394428943816	469.431486000408	553.596884797107	1150.211789831724	762.714243187284	335.972601270568	1067.585325063762	626.024963389736	277.549778806789	1176.790516757937	570.861527567957	331.881294969410	1186.778073743746	501.129120686848	336.296844477311	1165.273436967227	427.423567112893	326.823696863905	1081.408070509741	308.209918456803	275.552230011928	1147.486014529095	198.103546984775	337.100249094085	1047.741616176958	390.615194233438	569.919613679371	961.199679742595	308.406696264923	644.985286115607	973.095692597620	204.447370159151	584.959568587708	807.053799668789	59.440233216422	573.442590447305	982.552160422505	99.070007175841	601.421598335235	892.476624682188	45.961836167141	644.505408010872	1099.315446350678	39.034290208065	627.062804997348	1031.483029375356	38.457145419278	376.207935250768	1104.990303881415	35.886075843136	295.244409059778	1187.309699845063	98.522464272306	321.302954967466	1315.518990008734	50.152661218685	292.394420169273	901.439406207743	1104.114254779862	185.290023859472	870.424152088816	844.216083275692	217.075024299806	1388.007868118166	1198.531832237696	678.875445951582	1581.535354701780	1309.356985073484	556.798241490955	
37	52.930571428571	905.468945866134	1015.070197829191	503.443665042948	1050.570567521371	1426.396754106918	268.428801805699	1190.567918716487	1354.561554701817	397.391589286983	1162.221738775982	1441.350450243638	580.601687497352	1073.146725918656	1492.389666143254	421.565539399361	1148.569114380199	934.372260822764	569.845246344577	1080.381062931644	957.492018502868	304.873313818316	1145.221051334590	722.656683944147	545.511106861838	1060.641080442360	626.437485372816	626.537976833808	1110.622698877375	561.032998711850	538.042859000816	1097.229271257419	470.110768934493	552.678168308995	1150.504289486139	762.357671654872	331.769115563607	1066.578668127217	626.153104017668	273.902386368581	1175.072519301550	570.289527187213	328.741695187112	1184.422645318970	500.664945254027	333.695459153517	1162.701364535643	427.044040127358	324.609291000250	1078.433438429277	307.902399685804	273.869242301884	1143.893756341893	197.943941575972	336.331385180839	1046.765888345824	391.907312673337	569.047396439185	959.009839747725	310.943770017537	644.039375396835	970.838761764277	206.300783581078	584.864148334777	803.610194844718	62.845489868295	573.464876569408	979.765030004341	99.773774836324	601.687262462979	888.903306991807	47.846989969916	644.505763044626	1095.502336948589	38.542951739030	627.106716247766	1027.393344107237	38.445268633521	376.149416990096	1100.887033611055	35.843941463733	295.164608504893	1183.191683592168	98.485180958155	321.153055591674	1311.423439049358	50.144720090765	292.318799469403	909.002622563586	1104.139585705658	175.491901703170	883.268362654839	843.331193715641	204.565373750750	1384.369805507892	1196.377354049068	676.123823125459	1584.858877481137	1299.828917749356	558.180828570444	
38	52.951142857143	905.589763191727	1016.272149335040	496.825766433135	1053.302809619223	1427.627624352453	263.559768108281	1191.669625578228	1355.995840667076	394.343686257975	1160.823944988209	1442.906724830795	577.110281362631	1073.636861665490	1493.752069235445	417.084684982628	1147.840669560414	935.780372892759	566.159693822213	1082.722168680281	958.318136457942	300.421739080044	1145.077442505894	724.005670607189	542.951957469075	1060.015675714126	628.129522476986	623.936208055790	1111.309627546009	562.102336277712	536.498520663157	1098.190964013973	470.693942425378	551.863692065137	1150.772600435099	761.891859286861	327.559848475854	1065.429201084311	626.261756943289	270.288543125852	1173.167750265489	569.647769875902	325.651836124593	1181.826458710254	500.164163676796	331.136695488864	1159.932596353827	426.658337252352	322.425152129791	1075.314753415007	307.555116362827	272.213913680787	1140.235300183879	197.785923261997	335.579769969583	1046.692887128798	393.177391049272	568.212376565771	957.494638212624	313.683503040944	643.047297332373	969.097209168983	208.295651143698	584.809845995367	800.374525741438	66.716677626443	573.475996051103	977.242695207427	100.512942586944	601.998250011447	885.455865671201	49.966267656257	644.505985670998	1091.717481305293	38.104549389940	627.139269957543	1023.250652432943	38.432922040339	376.114972707440	1096.729154915876	35.790031029000	295.105611993688	1179.040922373313	98.416637781576	321.026840298007	1307.282954524678	50.068048135248	292.258870950970	917.097264465102	1103.966431207681	165.940394963341	896.556525310586	842.440378280706	192.319055598676	1379.519329842839	1193.553400915960	673.884301289672	1587.338231965936	1288.525518998357	560.772036366691	
39	52.971714285714	905.649216352895	1017.387043727902	490.122265034398	1056.013422813761	1428.828772320775	258.774455495688	1192.578379647225	1357.494933404844	391.542048241069	1159.005592389130	1444.530194317040	573.790382998401	1073.934440525382	1495.124531774396	412.660702045675	1146.986103963216	937.256283267805	562.572003559798	1085.156795945556	959.159701346557	296.069589699220	1145.428833837118	725.524930274860	540.413963485795	1060.133783554657	629.769645882042	621.285246537359	1113.028986755460	563.251430625640	534.956508249033	1100.383979709280	471.169746847368	551.144822347286	1151.083680561073	761.358021085512	323.417445007256	1064.291032076326	626.354564186261	266.721388304202	1171.221203720937	568.965088410347	322.668494056942	1179.154578733137	499.634125801801	328.674430864491	1157.109426785779	426.265029045171	320.318022183296	1072.186327282910	307.188472192447	270.594577427841	1136.571915433855	197.620905710379	334.866976388939	1047.631743696433	394.404966521329	567.404469958314	956.776441516808	316.621973273727	642.000862948380	967.957242583090	210.437583872211	584.789871363615	797.420951595520	71.118294842485	573.482624674722	975.029401625946	101.283613148647	602.353113461163	882.174875931531	52.364357902003	644.506882086276	1087.958044620048	37.735551840033	627.160029812798	1019.072834529952	38.420899649676	376.096543378167	1092.536279986059	35.731996785703	295.062486566682	1174.875316394664	98.323799308152	320.928458312212	1303.119301882489	49.929379505300	292.212910241904	925.745395926883	1103.557487185084	156.730184828996	910.358237310435	841.484918464292	180.387517155553	1373.313828685118	1189.950346956344	672.168284513941	1588.624900953743	1275.214190512105	564.546294999086	
